Coordinates
version=1
nRows=19
nColumns=24
inDegrees=yes

Units are S.I. units (second, meters, Newtons, ...)
Angles are in degrees.

endheader
time	pelvis_tilt	pelvis_list	pelvis_rotation	pelvis_tx	pelvis_ty	pelvis_tz	hip_flexion_r	hip_adduction_r	hip_rotation_r	knee_angle_r	ankle_angle_r	subtalar_angle_r	mtp_angle_r	hip_flexion_l	hip_adduction_l	hip_rotation_l	knee_angle_l	ankle_angle_l	subtalar_angle_l	mtp_angle_l	lumbar_extension	lumbar_bending	lumbar_rotation
      5.41000000	     -8.14793080	     -6.01126117	      4.80818617	     -0.82778844	     -0.00033900	     -0.26100985	     10.98589234	     10.31393881	      4.68630074	    -10.36912449	      0.55351288	     -2.78022816	     11.75029466	     25.08802448	     -7.84400310	      1.50096205	    -59.45041383	    -10.17380246	     -6.55125079	     20.81668184	      8.00907794	      5.29425884	      0.29460218
      5.41500000	     -8.10797337	     -5.81710631	      4.55058097	     -0.82324234	     -0.00005257	     -0.26036664	     10.46890715	     10.20290568	      4.92010584	    -10.12473900	      0.73354691	     -2.63076788	     11.81139414	     25.54953572	     -7.65945950	      1.17524220	    -58.92162598	     -9.60395746	     -6.54320664	     20.85978975	      7.84918325	      5.14230728	      0.72394164
      5.42000000	     -8.07608131	     -5.62330724	      4.34243260	     -0.81868841	      0.00016919	     -0.25978909	      9.95590519	     10.07767894	      5.12128353	     -9.86280865	      0.92163440	     -2.52481121	     11.89478669	     26.02105283	     -7.44700442	      0.91287083	    -58.34913119	     -9.08854226	     -6.54559972	     20.84994390	      7.71025466	      4.97624519	      1.09048149
      5.42500000	     -8.04475422	     -5.44087561	      4.14522907	     -0.81414953	      0.00033750	     -0.25924886	      9.45090334	      9.95816752	      5.31229218	     -9.60678757	      1.10323981	     -2.43727061	     11.99440489	     26.48539786	     -7.23758562	      0.67694813	    -57.73064365	     -8.60347535	     -6.56401411	     20.80017176	      7.57486402	      4.82081580	      1.43795975
      5.43000000	     -8.02564922	     -5.26593218	      3.97573030	     -0.80960264	      0.00044094	     -0.25877531	      8.95777657	      9.83597344	      5.48955586	     -9.34277499	      1.29107828	     -2.38061079	     12.09202447	     26.95988462	     -7.01822343	      0.48447260	    -57.07097123	     -8.17391337	     -6.58386232	     20.73049969	      7.46317392	      4.67493467	      1.76069082
      5.43500000	     -7.98332094	     -5.10030901	      3.77150893	     -0.80508451	      0.00053164	     -0.25828194	      8.45226724	      9.72854249	      5.69301747	     -9.09978494	      1.46332133	     -2.31975718	     12.19730272	     27.38431166	     -6.82477627	      0.27580759	    -56.35879060	     -7.74854653	     -6.62363259	     20.59497172	      7.31558600	      4.54301812	      2.11154355
      5.44000000	     -7.88411159	     -4.95492512	      3.54831517	     -0.80056118	      0.00064821	     -0.25777184	      7.88608832	      9.64737682	      5.92925215	     -8.85623961	      1.59339182	     -2.27446903	     12.31721333	     27.72705224	     -6.67229176	      0.04779460	    -55.60248627	     -7.30545640	     -6.67791551	     20.27035382	      7.10813393	      4.43138617	      2.48947334
      5.44500000	     -7.88583667	     -4.80575569	      3.41731735	     -0.79606873	      0.00059382	     -0.25737805	      7.44625000	      9.54048777	      6.08536899	     -8.63141749	      1.77823060	     -2.29833919	     12.39009154	     28.19549001	     -6.45349349	     -0.04735547	    -54.81024055	     -6.94999944	     -6.69297200	     20.11527735	      7.02336745	      4.29635952	      2.75394571
      5.45000000	     -7.77641714	     -4.66981480	      3.17103678	     -0.79156742	      0.00066202	     -0.25692617	      6.88144211	      9.46414809	      6.36870647	     -8.40925966	      1.90058399	     -2.29946695	     12.46550887	     28.49088852	     -6.32130045	     -0.27417087	    -53.96352982	     -6.54557939	     -6.73827471	     19.67588454	      6.80282467	      4.21820918	      3.16096837
      5.45500000	     -7.78274970	     -4.52708445	      3.03140601	     -0.78712176	      0.00053669	     -0.25656115	      6.47382831	      9.36273092	      6.52999808	     -8.22938308	      2.08281045	     -2.36063688	     12.50881569	     28.92637446	     -6.11415319	     -0.34968431	    -53.07213668	     -6.20462494	     -6.74390539	     19.47879420	      6.71381436	      4.08700345	      3.40497207
      5.46000000	     -7.68719975	     -4.39108691	      2.77687174	     -0.78262625	      0.00055639	     -0.25614614	      5.93855669	      9.27955474	      6.84813943	     -8.03663026	      2.20290250	     -2.40079864	     12.51346582	     29.19207063	     -5.98720085	     -0.55602763	    -52.11845588	     -5.84826175	     -6.76305590	     19.01500840	      6.51363704	      4.00966546	      3.80080198
      5.46500000	     -7.61969304	     -4.25456049	      2.58425793	     -0.77818554	      0.00048697	     -0.25579363	      5.45682367	      9.19033104	      7.11197496	     -7.87645791	      2.34401468	     -2.52977673	     12.46769613	     29.48693234	     -5.82015263	     -0.66503424	    -51.12956767	     -5.45880375	     -6.71415941	     18.49774324	      6.33850030	      3.90896773	      4.15419386
      5.47000000	     -7.60616623	     -4.12496384	      2.38985515	     -0.77371556	      0.00033692	     -0.25546471	      5.03221913	      9.09950591	      7.36236943	     -7.71310940	      2.51648512	     -2.61262130	     12.42686154	     29.82322052	     -5.67062980	     -0.78635483	    -50.08888439	     -5.15294195	     -6.66784521	     18.14607285	      6.23475846	      3.81716693	      4.44060173
      5.47500000	     -7.55578075	     -3.99943027	      2.18499093	     -0.76930984	      0.00021354	     -0.25512907	      4.58926578	      9.01738121	      7.63838207	     -7.58820643	      2.66142559	     -2.73732426	     12.31585315	     30.09205607	     -5.52694914	     -0.87656378	    -48.99309100	     -4.83609042	     -6.60421164	     17.70933672	      6.07197723	      3.72499675	      4.78881439
      5.48000000	     -7.55817131	     -3.87110106	      1.99942065	     -0.76484001	     -0.00000327	     -0.25484819	      4.19802729	      8.92236168	      7.88613090	     -7.45633950	      2.84847581	     -2.84523581	     12.23286203	     30.39588800	     -5.37837527	     -0.96605696	    -47.84404491	     -4.56527663	     -6.52728877	     17.39770325	      5.98817694	      3.62894669	      5.05876635
      5.48500000	     -7.55749890	     -3.74352831	      1.81299147	     -0.76040109	     -0.00022759	     -0.25458804	      3.81824490	      8.82632775	      8.13261577	     -7.34922786	      3.02200109	     -2.96210202	     12.13421459	     30.66907357	     -5.22779208	     -1.02487146	    -46.63690008	     -4.32528273	     -6.43431768	     17.09438401	      5.89198805	      3.53645113	      5.34628690
      5.49000000	     -7.50841259	     -3.62627510	      1.59548669	     -0.75602133	     -0.00040462	     -0.25431819	      3.39620147	      8.74428776	      8.44527814	     -7.26141916	      3.16896433	     -3.10812697	     11.93556542	     30.86115526	     -5.10246314	     -1.07956151	    -45.38525870	     -4.07967837	     -6.31199264	     16.63829096	      5.72726002	      3.46188351	      5.71684341
      5.49500000	     -7.54513388	     -3.51322307	      1.43941244	     -0.75152166	     -0.00073770	     -0.25411047	      3.05813630	      8.65537260	      8.65992036	     -7.16016292	      3.36524936	     -3.22264605	     11.81786036	     31.13133124	     -4.95903318	     -1.09840161	    -44.08768044	     -3.86350970	     -6.17473133	     16.33697942	      5.68834383	      3.36815460	      5.93498378
      5.50000000	     -7.60295804	     -3.41367769	      1.30216503	     -0.74714716	     -0.00111113	     -0.25399076	      2.78329790	      8.57493710	      8.81607488	     -7.11396358	      3.54080740	     -3.32210097	     11.76011389	     31.41238784	     -4.80093027	     -1.01765402	    -42.74208070	     -3.72698208	     -6.02110213	     16.12491573	      5.64603640	      3.30026788	      6.17645115
